<svg width="545" height="526" viewBox="0 0 545 526" fill="none" xmlns="http://www.w3.org/2000/svg">
<path d="M276.25 138.86C274.176 137.49 270.311 134.843 266.423 131.684C256.599 123.701 255.833 119.957 255.833 119V95.5028C263.453 94.7105 273.036 91.2641 276.248 90.0453C279.574 91.3141 289.045 94.724 296.667 95.5053V116.295C298.601 116.013 300.566 116.013 302.5 116.295V92.7498C302.5 91.9763 302.193 91.2344 301.646 90.6874C301.099 90.1404 300.357 89.8331 299.583 89.8331C291.502 89.8331 277.474 84.2645 277.333 84.2084C276.638 83.9305 275.862 83.9305 275.167 84.2084C275.026 84.2649 261.01 89.8331 252.917 89.8331C252.143 89.8331 251.401 90.1404 250.854 90.6874C250.307 91.2344 250 91.9763 250 92.7498V119C250 123.614 254.169 129.245 262.744 136.211C266.569 139.295 270.562 142.165 274.704 144.806C275.168 145.096 275.703 145.25 276.25 145.25C276.797 145.25 277.332 145.096 277.796 144.806C277.891 144.747 278.833 144.156 280.293 143.176C279.59 141.146 279.213 139.017 279.176 136.868C278.018 137.679 277.012 138.356 276.25 138.86Z" fill="#0789FE"/>
<path d="M258.75 98.051V118.942C258.804 119.21 259.607 122.387 268.262 129.419C271.213 131.817 274.163 133.92 276.25 135.345C277.173 134.714 278.271 133.945 279.458 133.082C280.103 129.328 281.782 125.828 284.307 122.976C286.832 120.123 290.102 118.032 293.75 116.936V98.0572C287.155 96.9908 280.002 94.5518 276.245 93.1602C272.483 94.5474 265.323 96.9788 258.75 98.051ZM285 101.5V107.333H274.792C274.405 107.333 274.034 107.487 273.76 107.76C273.487 108.034 273.333 108.405 273.333 108.791C273.333 109.178 273.487 109.549 273.76 109.822C274.034 110.096 274.405 110.25 274.792 110.25H277.708C279.517 110.248 281.261 110.918 282.603 112.13C283.945 113.342 284.789 115.009 284.97 116.808C285.152 118.608 284.659 120.41 283.586 121.866C282.514 123.322 280.939 124.327 279.167 124.687V127.75H273.333V124.833H267.5V119H277.708C278.095 119 278.466 118.846 278.74 118.572C279.013 118.299 279.167 117.928 279.167 117.541C279.167 117.155 279.013 116.784 278.74 116.51C278.466 116.237 278.095 116.083 277.708 116.083H274.792C272.983 116.085 271.239 115.415 269.897 114.203C268.555 112.991 267.711 111.323 267.53 109.524C267.348 107.725 267.841 105.923 268.914 104.467C269.986 103.011 271.561 102.005 273.333 101.645V98.583H279.167V101.5H285Z" fill="#0789FE"/>
<path d="M299.583 119C296.122 119 292.738 120.026 289.861 121.949C286.983 123.872 284.74 126.605 283.415 129.803C282.091 133.001 281.744 136.519 282.419 139.914C283.095 143.309 284.761 146.427 287.209 148.874C289.656 151.322 292.774 152.988 296.169 153.664C299.564 154.339 303.082 153.992 306.28 152.668C309.478 151.343 312.211 149.1 314.134 146.222C316.057 143.345 317.083 139.961 317.083 136.5C317.078 131.86 315.232 127.412 311.952 124.131C308.671 120.851 304.223 119.005 299.583 119ZM302.01 141.035C301.615 141.626 301.019 142.053 300.331 142.236C299.644 142.418 298.914 142.343 298.279 142.025L292.445 139.109L295.054 133.891L298.584 135.656L302.99 129.049L307.843 132.285L302.01 141.035Z" fill="#0789FE"/>
<path d="M28.125 261H9.375V267.25H28.125V261ZM36.8164 246.254L27.2559 236.684C26.8164 236.244 26.2207 236 25.5957 236H25V248.5H37.5V247.904C37.5 247.289 37.2559 246.693 36.8164 246.254ZM21.875 249.281V236H2.34375C1.04492 236 0 237.045 0 238.344V283.656C0 284.955 1.04492 286 2.34375 286H35.1562C36.4551 286 37.5 284.955 37.5 283.656V251.625H24.2188C22.9297 251.625 21.875 250.57 21.875 249.281ZM6.25 243.031C6.25 242.6 6.59961 242.25 7.03125 242.25H14.8438C15.2754 242.25 15.625 242.6 15.625 243.031V244.594C15.625 245.025 15.2754 245.375 14.8438 245.375H7.03125C6.59961 245.375 6.25 245.025 6.25 244.594V243.031ZM6.25 249.281C6.25 248.85 6.59961 248.5 7.03125 248.5H14.8438C15.2754 248.5 15.625 248.85 15.625 249.281V250.844C15.625 251.275 15.2754 251.625 14.8438 251.625H7.03125C6.59961 251.625 6.25 251.275 6.25 250.844V249.281ZM31.25 278.969C31.25 279.4 30.9004 279.75 30.4688 279.75H22.6562C22.2246 279.75 21.875 279.4 21.875 278.969V277.406C21.875 276.975 22.2246 276.625 22.6562 276.625H30.4688C30.9004 276.625 31.25 276.975 31.25 277.406V278.969ZM31.25 259.438V268.812C31.25 269.676 30.5508 270.375 29.6875 270.375H7.8125C6.94922 270.375 6.25 269.676 6.25 268.812V259.438C6.25 258.574 6.94922 257.875 7.8125 257.875H29.6875C30.5508 257.875 31.25 258.574 31.25 259.438Z" fill="#0689FE"/>
<path d="M295.111 421.889C295.111 414.215 287.03 408 277.056 408C267.082 408 259 414.215 259 421.889C259 424.866 260.224 427.609 262.299 429.875C261.135 432.497 259.217 434.58 259.191 434.606C259 434.806 258.948 435.101 259.061 435.361C259.174 435.622 259.417 435.778 259.694 435.778C262.872 435.778 265.502 434.71 267.394 433.608C270.189 434.97 273.497 435.778 277.056 435.778C287.03 435.778 295.111 429.562 295.111 421.889ZM305.701 440.986C307.776 438.729 309 435.977 309 433C309 427.193 304.356 422.219 297.776 420.144C297.854 420.717 297.889 421.299 297.889 421.889C297.889 431.082 288.54 438.556 277.056 438.556C276.118 438.556 275.207 438.486 274.304 438.391C277.038 443.382 283.462 446.889 290.944 446.889C294.503 446.889 297.811 446.09 300.606 444.719C302.498 445.821 305.128 446.889 308.306 446.889C308.583 446.889 308.835 446.724 308.939 446.472C309.052 446.22 309 445.925 308.809 445.717C308.783 445.691 306.865 443.616 305.701 440.986Z" fill="#0689FE"/>
<path d="M283.009 242.451H287.111C287.111 246.119 289.84 249.159 293.375 249.652V247.304C293.375 241.032 288.272 235.93 282 235.93C275.728 235.93 270.626 241.032 270.626 247.304V249.724H275.736C279.746 249.724 283.009 246.461 283.009 242.451Z" fill="#0789FE"/>
<path d="M262.769 262.943H266.637C266.563 262.296 266.524 261.637 266.524 260.968V247.304C266.524 238.771 273.466 231.828 282 231.828C290.533 231.828 297.476 238.771 297.476 247.304V260.969C297.476 261.637 297.436 262.296 297.362 262.943H301.231C304.31 262.943 306.815 260.438 306.815 257.359V251.137C306.815 248.134 304.432 245.679 301.458 245.559C300.453 235.71 292.11 228 282 228C271.889 228 263.546 235.71 262.541 245.559C259.567 245.679 257.185 248.134 257.185 251.137V257.359C257.185 260.438 259.69 262.943 262.769 262.943Z" fill="#0789FE"/>
<path d="M282 273.208C285.492 273.208 288.62 271.506 290.708 268.833H284.354V264.732H292.824C293.181 263.545 293.375 262.281 293.375 260.968V253.781C289.939 253.477 286.937 251.64 285.06 248.959C283.001 251.899 279.589 253.825 275.736 253.825H270.626V260.968C270.626 267.717 275.728 273.208 282 273.208Z" fill="#0789FE"/>
<path d="M293.52 277.34V271.867C290.685 275.205 286.571 277.309 282 277.309C277.459 277.309 273.369 275.233 270.535 271.933V277.334L270.516 277.34C273.207 279.434 277.674 282.296 281.982 282.296C286.31 282.296 290.806 279.436 293.52 277.34Z" fill="#0789FE"/>
<path d="M311.83 283.354L298.117 278.859C295.796 280.927 288.993 286.398 281.982 286.398C274.962 286.398 268.213 280.915 265.917 278.848L252.17 283.354C249.078 284.368 247 287.236 247 290.49V298H261.121V290.89H265.223V298H298.777V290.89H302.879V298H317V290.49C317 287.236 314.922 284.368 311.83 283.354Z" fill="#0789FE"/>
<rect x="283.785" y="0.707107" width="367.806" height="373.463" transform="rotate(45 283.785 0.707107)" stroke="white"/>
<rect x="283" y="105.721" width="220.424" height="223.821" transform="rotate(45 283 105.721)" stroke="white"/>
</svg>
