<svg xmlns="http://www.w3.org/2000/svg" xmlns:xlink="http://www.w3.org/1999/xlink" viewBox="0 0 195.69 202.6">
    <defs>
        <style>.cls-1{font-size:43.21px;font-family:ConthraxSb-Regular, ConthraxSb Regular;}.cls-2{letter-spacing:-0.01em;}.cls-3{letter-spacing:-0.01em;}.cls-4,.cls-5,.cls-6,.cls-7,.cls-8,.cls-9{fill-rule:evenodd;}.cls-4{fill:url(#New_Gradient_Swatch_8);}.cls-5{fill:url(#New_Gradient_Swatch_3);}.cls-6{fill:url(#New_Gradient_Swatch_1);}.cls-7{fill:url(#New_Gradient_Swatch_1-2);}.cls-8{fill:url(#New_Gradient_Swatch_3-2);}.cls-9{fill:url(#New_Gradient_Swatch_3-3);}</style>
        <radialGradient id="New_Gradient_Swatch_8" cx="83.78" cy="-32.81" r="205.59" gradientUnits="userSpaceOnUse">
            <stop offset="0" stop-color="#fff" />
            <stop offset="0.5" stop-color="#f8b626" />
            <stop offset="1" stop-color="#c81b23" />
        </radialGradient>
        <linearGradient id="New_Gradient_Swatch_3" x1="219.3" y1="50.2" x2="168.25" y2="84.35" gradientUnits="userSpaceOnUse">
            <stop offset="0" stop-color="#fff" />
            <stop offset="1" stop-color="#fff" stop-opacity="0" />
        </linearGradient>
        <radialGradient id="New_Gradient_Swatch_1" cx="-1.43" cy="-50.8" r="229.98" gradientUnits="userSpaceOnUse">
            <stop offset="0" stop-color="#fff" />
            <stop offset="0.5" stop-color="#31b1e7" />
            <stop offset="1" stop-color="#323390" />
        </radialGradient>
        <radialGradient id="New_Gradient_Swatch_1-2" cx="-5.1" cy="-44.56" r="162.98" xlink:href="#New_Gradient_Swatch_1" />
        <linearGradient id="New_Gradient_Swatch_3-2" x1="8.52" y1="40.91" x2="36.43" y2="79.1" xlink:href="#New_Gradient_Swatch_3" />
        <linearGradient id="New_Gradient_Swatch_3-3" x1="111.04" y1="83.65" x2="119.12" y2="59.41" xlink:href="#New_Gradient_Swatch_3" />
    </defs>
    <title>Asset 1</title>
    <g id="Layer_2" data-name="Layer 2">
        <g id="Layer_1-2" data-name="Layer 1">
            <text />
            <text class="cls-1" fill="#E67C25" transform="translate(40.08 181.22)">
                <tspan class="cls-2">C</tspan>
                <tspan x="24.76" y="0">ar</tspan>
                <tspan class="cls-3" x="59.71" y="0">C</tspan>
                <tspan x="84.26" y="0">ult</tspan>
            </text>
            <path class="cls-4" d="M187.82,61.53,168,55.21A20.48,20.48,0,0,1,155.29,45c-3.78,21.17-26.52,47.53-39.65,60h19.21a18.8,18.8,0,1,0,37.6,0h11.93a11.32,11.32,0,0,0,11.31-11.29V72.3a11.14,11.14,0,0,0-7.87-10.77ZM153.65,92.87a12.2,12.2,0,1,1-12.19,12.19,12.2,12.2,0,0,1,12.19-12.19Z" />
            <path class="cls-5" d="M183.61,71.36V94.11a7,7,0,0,1-6.93,6.93h7.18a7,7,0,0,0,6.93-6.93V71.36a6.77,6.77,0,0,0-4.82-6.6l-21-6.71,13.85,6.71c2.8,1.34,4.83,3.5,4.83,6.6Z" />
            <path class="cls-6" d="M57,91.11c-2.84-2.52-3.68-7.5-.61-9.74,21.19-15.46,38-30.57,49.08-55,3.36-7.41,6-8.18,13.79-10.62l14-4.38a22.18,22.18,0,0,0-3.81-3.13l-14.6,4.59c-10.71,3.35-12.08,4.49-16.84,14.5H82.71a11,11,0,0,0-8.41,3.75L58.05,49.22c-3.4,3.8-6.81,7-11.71,8.45L12.23,67.42c-3.49,1-5.6,4.09-6.46,7.63l-5.6,23a5.62,5.62,0,0,0,5.48,7H22a18.81,18.81,0,1,0,37.61,0h4.14l19.77,17.55c4.33,3.85,10.36,3.16,14.23-.55l13.32-12.83c-3.89,3.47-7.89,6.71-12,9.74-3.14,2.33-7,3.33-9.89.74Zm51.6-19.34c2,2.6,4.42,5.91,1.71,8.91a5.54,5.54,0,0,1-7.62.48c-3.81-2.86-2-6.77.32-9.86-3.15-2-6.28-3.94-9.42-5.92C87.84,72,85.85,78.49,92.36,84.9q-3.42,2.68-7,5.19c2,1.57,4.09,3.14,6.13,4.73q3.63-2.55,7-5.25c7.61,4.27,16.52,3.12,22.24-3.71,4.9-5.82,4.31-11.76.49-17.86-1.77-2.81-7.42-8.19-5.33-11.21a3.46,3.46,0,0,1,5.25-.84,4.79,4.79,0,0,1,2.16,3.39,8.83,8.83,0,0,1-1.24,5l9,5.44c3.48-6.72,4.07-13-1.65-18.6,1.43-2.44,2.82-4.88,4.22-7.35l-5.82-4.06c-1.36,2.47-2.77,4.9-4.2,7.32-6.47-3.31-12.62-.88-16.81,4.77-5.34,7.23-3,13.48,1.84,19.93Zm5.7-61.14c-.6-3.06-.26-6.13,2-8.25S122-.5,125.76.34c7.59,1.7,15.36,9,17.55,16.42,1.1,3.76.59,7.19-1.51,9.66a2,2,0,0,1-2.64.15,1.86,1.86,0,0,1-.11-2.66c1.25-1.35,1.43-3.58.68-6.1C137.92,11.64,131.21,5.37,124.94,4c-2.51-.56-4.76-.35-6,1a5.46,5.46,0,0,0-1.17,4.56ZM134,32.41A9.69,9.69,0,1,0,145.64,17c.9,3.79.43,7.74-2.18,10.81a4.08,4.08,0,0,1-5.74.38,4,4,0,0,1-.26-5.78c1.26-1.38,0-4.71-.71-6.22a9.56,9.56,0,0,0-3.58,2.52A9.7,9.7,0,0,0,134,32.41Zm7.65-23.62c4.94-1.55,11.13-2,11.83,5l1.14,11.51.18-11.66c.16-10-8.58-10.64-16.11-8.28a31.61,31.61,0,0,1,3,3.4ZM40.84,92.87a12.2,12.2,0,1,1-12.2,12.19,12.2,12.2,0,0,1,12.2-12.19Z" />
            <path class="cls-7" d="M51,78.93C71.05,64.29,87.18,50.06,98,27.37H91.49C82.64,48.71,68.53,63.49,51,78.93Z" />
            <path class="cls-8" d="M11,100.26l5.13-21.09c.44-1.79,1.44-3.93,3.38-4.48l33-9.16c5-1.39,8.12-9.61,11.78-15.51-4.29,4.77-8.65,8.76-15,10.57L12.64,71.07c-1.92.56-2.93,2.68-3.36,4.48l-6,24.71a.94.94,0,0,0,.92,1.22h7.75a.94.94,0,0,1-.92-1.22Z" />
            <path class="cls-9" d="M123.62,63.85l6.93,4.22c3.14-6.69,2.73-11.49-2.65-16.71,1.4-2.38,2.78-4.79,4.15-7.19l-3.84-2.69c-1.36,2.41-2.75,4.79-4.16,7.16-6.56-3.35-11.85-2.09-16.3,3.91-3.59,4.85-3.44,9.17-1.34,13.5l13.89,2.67-.06-.08c-1.94-3.09-8-8.62-5.31-12.53A4.65,4.65,0,0,1,121.86,55c3.19,2.29,3.22,5.55,1.76,8.88Z" />
        </g>
    </g>
</svg>